:SAMPLES-PER-SECOND 30
:FULLY-SPECIFIED
:DEGREES
611
root  59.8927 37.4046 -6.24329 164.518 -72.6937 -166.02
RightUpLeg  -21.1797 -2.89878 2.71387
RightLeg  23.4639 3.92591 1.63935
RightFoot  -1.56579 -0.10945 1.15516
RightToes  -1.33073e-015 0 -3.6325e-017
Spine  5.67415 0.014317 13.683
Spine1  6.62557 1.46285 -2.05912
HEad  -7.12054 -23.9182 -4.84272
LeftShoulder1  -0.513805 4.77277 -34.3082
LeftArm  -1.0108 13.9668 -40.4317
LeftForeArm  30.4786 -11.3777 -8.14886
LeftHand  -0.00351965 8.67922 1.45427
RightShoulder  -1.01634 -6.26048 30.2678
RightArm  11.5645 -3.64914 39.5667
RightForeArm  13.7385 8.41685 6.00702
RightHand  -0.047736 4.70216 -0.79678
LeftUpLeg  7.71961 -3.27108 1.67783
LeftLeg  39.4057 -9.24721 -7.64748
LeftFoot  -8.26437 0.0717018 -0.362799
LeftToes  -1.63346e-009 7.54925e-011 9.86887e-012
612
root  58.8498 37.4861 -6.75159 160.115 -74.1274 -161.276
RightUpLeg  -19.7213 -4.28293 3.69975
RightLeg  24.5001 3.593 1.5601
RightFoot  -4.07357 -0.0886095 0.984029
RightToes  -1.33073e-015 0 -3.6325e-017
Spine  6.20512 -0.147951 15.3605
Spine1  5.57194 1.59633 -1.84119
HEad  -6.34811 -24.6971 -3.7971
LeftShoulder1  -0.413414 4.54299 -33.6517
LeftArm  -0.00633939 15.2056 -40.3527
LeftForeArm  30.7538 -11.7904 -8.16425
LeftHand  -0.0239207 8.38366 0.822121
RightShoulder  -1.23001 -6.76026 31.2718
RightArm  13.2918 -2.93358 38.6234
RightForeArm  13.461 9.46011 6.41321
RightHand  0.0179154 2.80335 0.0277792
LeftUpLeg  2.14301 -2.819 3.70534
LeftLeg  48.6832 -7.40085 -8.48449
LeftFoot  3.40884 0.504552 -3.89235
LeftToes  -1.63346e-009 7.54925e-011 9.86887e-012
613
root  57.8401 37.5582 -7.21165 157.031 -75.2686 -158.101
RightUpLeg  -18.0008 -6.11361 4.10105
RightLeg  25.1452 4.05363 1.89999
RightFoot  -6.6807 -0.0986522 1.29344
RightToes  -1.33073e-015 0 -3.6325e-017
Spine  6.02579 -0.193693 16.5776
Spine1  6.04192 1.79567 -1.75497
HEad  -6.36805 -25.661 -2.9579
LeftShoulder1  -0.429024 4.57835 -33.7748
LeftArm  2.28604 15.2909 -39.9459
LeftForeArm  29.6974 -13.1106 -7.95458
LeftHand  -0.039837 8.166 0.0846819
RightShoulder  -1.13509 -6.52215 31.073
RightArm  14.233 -1.74543 39.5272
RightForeArm  12.716 9.98988 6.67411
RightHand  -0.0979463 3.15622 -1.57972
LeftUpLeg  -3.16939 -1.93726 4.89132
LeftLeg  55.8363 -4.82404 -7.09609
LeftFoot  13.4044 1.29387 -6.40685
LeftToes  -1.63346e-009 7.54925e-011 9.86887e-012
614
root  56.7721 37.7631 -7.70069 156.211 -76.3554 -157.55
RightUpLeg  -15.2087 -7.64086 3.69644
RightLeg  24.4892 4.51402 2.28381
RightFoot  -8.76019 -0.0893697 1.32619
RightToes  -1.33073e-015 0 -3.6325e-017
Spine  5.6654 -0.0378935 16.8366
Spine1  6.82455 2.10136 -1.99538
HEad  -6.19755 -26.5318 -1.74156
LeftShoulder1  -0.429533 4.58852 -33.4357
LeftArm  4.84253 15.4982 -40.2428
LeftForeArm  27.3023 -15.2141 -7.15554
LeftHand  -0.0578296 7.22232 -1.04203
RightShoulder  -1.03124 -6.27522 30.6391
RightArm  15.746 -0.843306 40.7644
RightForeArm  12.0795 11.5598 6.68248
RightHand  -0.0948252 4.02726 -1.44243
LeftUpLeg  -7.36837 -0.46902 5.08357
LeftLeg  60.2575 -2.66848 -4.54119
LeftFoot  12.3035 1.07359 -5.40899
LeftToes  -1.63346e-009 7.54925e-011 9.86887e-012
615
root  55.6848 38.0088 -8.16647 158.096 -77.3063 -159.389
RightUpLeg  -12.4132 -8.20336 2.79048
RightLeg  22.9387 4.45989 2.41069
RightFoot  -10.3341 -0.0829566 1.53337
RightToes  -1.33073e-015 0 -3.6325e-017
Spine  6.36361 0.308127 16.369
Spine1  5.21517 2.45603 -2.27846
HEad  -6.14622 -26.8127 -2.02633
LeftShoulder1  -0.450958 4.61937 -34.2555
LeftArm  8.1441 16.2442 -39.4134
LeftForeArm  23.1267 -17.7041 -6.07436
LeftHand  -0.0613024 7.94112 -0.760952
RightShoulder  -0.913381 -6.00531 29.9365
RightArm  18.3049 -0.674597 41.6786
RightForeArm  10.3299 13.5266 6.56091
RightHand  -0.107946 3.53784 -1.66197
LeftUpLeg  -11.7481 0.990332 4.33665
LeftLeg  62.0203 -2.16036 -3.84035
LeftFoot  8.02162 0.489834 -3.21476
LeftToes  -1.63346e-009 7.54925e-011 9.86887e-012
616
root  54.583 38.2081 -8.60558 160.918 -78.3461 -162.312
RightUpLeg  -9.49929 -8.99445 1.54987
RightLeg  21.4797 4.52357 2.71629
RightFoot  -11.8947 -0.0722745 1.87938
RightToes  -1.33073e-015 0 -3.6325e-017
Spine  6.84483 0.674459 16.1679
Spine1  4.35235 2.99731 -3.3695
HEad  -5.61403 -27.4969 -1.98461
LeftShoulder1  -0.365122 4.42126 -33.6585
LeftArm  9.15158 16.6334 -40.1617
LeftForeArm  20.9304 -19.3318 -5.23775
LeftHand  -0.0485345 7.31654 -0.442364
RightShoulder  -0.964683 -6.1428 29.9851
RightArm  20.4058 0.115753 42.513
RightForeArm  8.88291 15.2881 6.23329
RightHand  -0.0783937 4.63389 -1.19628
LeftUpLeg  -15.4161 1.93 3.03145
LeftLeg  60.7417 -2.31707 -3.91027
LeftFoot  5.93241 0.452858 -3.19988
LeftToes  -1.63346e-009 7.54925e-011 9.86887e-012
617
root  53.4335 38.3959 -9.02803 164.543 -79.3667 -165.924
RightUpLeg  -6.47229 -9.97629 0.105634
RightLeg  19.7305 4.73927 3.22017
RightFoot  -13.2029 -0.0551722 2.04872
RightToes  -1.33073e-015 0 -3.6325e-017
Spine  6.91249 0.989719 15.7485
Spine1  3.66688 3.3428 -4.43572
HEad  -5.22329 -28.8692 -2.65583
LeftShoulder1  -0.35694 4.40686 -33.3827
LeftArm  10.2951 16.901 -40.4989
LeftForeArm  19.366 -21.0044 -4.53168
LeftHand  -0.0335688 6.73331 0.203313
RightShoulder  -0.98689 -6.19665 30.0841
RightArm  22.0315 0.705575 43.2153
RightForeArm  6.90289 17.1066 5.74571
RightHand  -0.0719504 5.23174 -1.09398
LeftUpLeg  -18.4557 2.70519 1.46216
LeftLeg  56.7239 -2.87719 -4.20948
LeftFoot  2.99132 0.225649 -1.92949
LeftToes  -1.63346e-009 7.54925e-011 9.86887e-012
618
root  52.3164 38.5238 -9.42948 169.044 -79.9008 -170.351
RightUpLeg  -3.65697 -10.2367 -1.03625
RightLeg  18.0618 5.08409 3.34351
RightFoot  -14.6066 -0.0231205 2.67362
RightToes  -1.33073e-015 0 -3.6325e-017
Spine  7.44411 1.40447 15.0987
Spine1  2.59462 3.69022 -5.24084
HEad  -4.62348 -30.7808 -5.16747
LeftShoulder1  -0.385563 4.47533 -33.5451
LeftArm  10.4464 16.977 -40.7014
LeftForeArm  18.6911 -22.5593 -4.10894
LeftHand  -0.0323068 7.06333 0.392715
RightShoulder  -0.944234 -6.10607 29.7145
RightArm  24.1824 1.11245 43.9577
RightForeArm  4.88361 19.3762 5.17249
RightHand  -0.0963364 5.49889 -1.34713
LeftUpLeg  -20.8861 3.61758 -0.0870272
LeftLeg  50.576 -3.30377 -3.87841
LeftFoot  0.0675078 0.124309 -1.27589
LeftToes  -1.63346e-009 7.54925e-011 9.86887e-012
619
root  51.1648 38.5999 -9.79898 171.496 -80.6888 -172.905
RightUpLeg  -0.469424 -10.2651 -1.80324
RightLeg  16.1597 4.87114 3.19445
RightFoot  -15.6066 -0.00426245 2.73484
RightToes  -1.33073e-015 0 -3.6325e-017
Spine  7.37401 1.52277 14.8473
Spine1  2.65904 3.81393 -6.2772
HEad  -4.19372 -31.8906 -7.22855
LeftShoulder1  -0.365363 4.43015 -33.2841
LeftArm  9.63053 16.6744 -41.4394
LeftForeArm  19.1967 -23.6096 -4.04189
LeftHand  -0.0314054 6.72314 0.49949
RightShoulder  -0.958721 -6.13386 29.8815
RightArm  25.6075 2.40893 44.4384
RightForeArm  3.94941 20.8807 4.9103
RightHand  -0.129391 5.35596 -1.71009
LeftUpLeg  -22.135 4.41665 -1.19565
LeftLeg  41.9705 -2.82023 -2.38225
LeftFoot  -0.994102 0.126679 -1.32727
LeftToes  -1.63346e-009 7.54925e-011 9.86887e-012
620
root  50.0071 38.6525 -10.1423 174.601 -81.2141 -175.681
RightUpLeg  2.26731 -10.2864 -2.40782
RightLeg  14.0575 4.68321 3.09221
RightFoot  -16.2281 -0.00176372 2.52796
RightToes  -1.33073e-015 0 -3.6325e-017
Spine  7.15906 1.84181 14.2589
Spine1  2.5732 4.03581 -7.03981
HEad  -3.74518 -32.8211 -9.36185
LeftShoulder1  -0.3053 4.28345 -33.0229
LeftArm  9.48618 16.2088 -42.0884
LeftForeArm  19.1408 -23.949 -4.11501
LeftHand  -0.0337838 7.03294 0.871639
RightShoulder  -1.01425 -6.27392 30.062
RightArm  26.6596 3.34762 44.6525
RightForeArm  3.58036 22.3916 4.77008
RightHand  -0.150753 6.12469 -1.85231
LeftUpLeg  -22.8577 5.21168 -2.38331
LeftLeg  31.2858 -1.55539 -0.603287
LeftFoot  -1.38015 0.0405728 -0.371379
LeftToes  -1.63346e-009 7.54925e-011 9.86887e-012
